Coordinates
version=1
nRows=19
nColumns=24
inDegrees=yes

Units are S.I. units (second, meters, Newtons, ...)
Angles are in degrees.

endheader
time	pelvis_tilt	pelvis_list	pelvis_rotation	pelvis_tx	pelvis_ty	pelvis_tz	hip_flexion_r	hip_adduction_r	hip_rotation_r	knee_angle_r	ankle_angle_r	subtalar_angle_r	mtp_angle_r	hip_flexion_l	hip_adduction_l	hip_rotation_l	knee_angle_l	ankle_angle_l	subtalar_angle_l	mtp_angle_l	lumbar_extension	lumbar_bending	lumbar_rotation
      3.57500000	     -7.50862092	      3.96367057	    358.06004471	     -0.13033904	      1.39015686	     -1.04014421	     28.18390848	     -1.05131898	      5.63006770	    -23.89530067	     -1.55603249	     -9.03582064	     10.97534147	      5.09309089	      8.16809824	      3.36856165	     -6.75401526	      2.85787379	     -4.90744909	     17.19059832	     -9.78813313	      1.09169791	      7.36484840
      3.58000000	     -7.52986908	      4.04844554	    358.14303359	     -0.12535234	      1.38948400	     -1.04004777	     28.08885261	     -1.23042207	      5.78609008	    -22.00580037	     -2.19756026	     -9.03151376	     10.95777784	      4.77362730	      8.27166615	      3.50027807	     -6.71080512	      3.10909435	     -4.84862410	     17.01616835	     -9.78998812	      1.04337201	      7.25602091
      3.58500000	     -7.58026300	      4.14869775	    358.23980837	     -0.12038136	      1.38873530	     -1.03994933	     28.01879705	     -1.43538681	      5.94986232	    -20.11944188	     -2.82812162	     -9.01133887	     10.96036067	      4.49581915	      8.39185662	      3.64586493	     -6.68445675	      3.35995783	     -4.80700949	     16.85412536	     -9.76586368	      0.97538599	      7.13122986
      3.59000000	     -7.63477702	      4.25575006	    358.34152564	     -0.11542894	      1.38794008	     -1.03985314	     27.94213844	     -1.65519563	      6.14005032	    -18.23124591	     -3.42006311	     -8.97067110	     11.00828977	      4.22837827	      8.51953081	      3.80766120	     -6.66906238	      3.61570920	     -4.77259505	     16.67379168	     -9.74388713	      0.89953119	      7.01334442
      3.59500000	     -7.69663039	      4.36438419	    358.44778921	     -0.11044304	      1.38711355	     -1.03976929	     27.85421997	     -1.88673838	      6.34681751	    -16.33364501	     -3.99087473	     -8.93511783	     11.13644487	      3.96947092	      8.65017824	      3.97611586	     -6.66201495	      3.87878623	     -4.73819801	     16.45518884	     -9.70927250	      0.83209557	      6.88574690
      3.60000000	     -7.83770848	      4.48843078	    358.56345902	     -0.10546639	      1.38614086	     -1.03971013	     27.86125451	     -2.14459590	      6.54037376	    -14.48673921	     -4.43096173	     -8.72324020	     11.09328838	      3.81517065	      8.79721147	      4.14288609	     -6.68314908	      4.10638260	     -4.75701854	     16.41673064	     -9.58408367	      0.73106834	      6.84777669
      3.60500000	     -7.85687215	      4.61441350	    358.69636653	     -0.10046362	      1.38527468	     -1.03964560	     27.69579877	     -2.42333984	      6.75912204	    -12.59146221	     -5.01048691	     -8.82320280	     11.51881568	      3.50742406	      8.95110089	      4.36946000	     -6.68923504	      4.44418827	     -4.68800590	     15.96910867	     -9.60754150	      0.64889272	      6.67626531
      3.61000000	     -7.98791132	      4.75522596	    358.86027016	     -0.09540238	      1.38423923	     -1.03962948	     27.66142549	     -2.73480818	      6.91159300	    -10.77965306	     -5.38152063	     -8.69863013	     11.48976771	      3.33194288	      9.12168696	      4.62613659	     -6.71167094	      4.69222404	     -4.73671163	     15.88566960	     -9.48564166	      0.54516355	      6.53294964
      3.61500000	     -8.05670025	      4.91144744	    359.01804539	     -0.09036837	      1.38322424	     -1.03959454	     27.55749895	     -3.06756349	      7.07727332	     -9.00119366	     -5.77370117	     -8.62212530	     11.61776957	      3.08807487	      9.31120353	      4.88536476	     -6.73668261	      4.93303274	     -4.80842200	     15.59108989	     -9.46615503	      0.44366826	      6.30646580
      3.62000000	     -8.16391871	      5.07440290	    359.18572890	     -0.08524862	      1.38212723	     -1.03957736	     27.50357007	     -3.41385090	      7.18145558	     -7.30800813	     -6.05965164	     -8.47223665	     11.70316687	      2.88169905	      9.50746382	      5.15387001	     -6.76863687	      5.20111129	     -4.85635506	     15.33505773	     -9.37556587	      0.32245759	      6.14214870
      3.62500000	     -8.28156633	      5.24723465	    359.35722843	     -0.08009124	      1.38097763	     -1.03955384	     27.47852978	     -3.76972553	      7.24045792	     -5.71957276	     -6.25307038	     -8.27783321	     11.70519021	      2.68420416	      9.71379607	      5.42932924	     -6.80290355	      5.46508641	     -4.91994786	     15.09203691	     -9.27147983	      0.19034900	      5.98046631
      3.63000000	     -8.42007734	      5.40773917	    359.53612602	     -0.07486324	      1.37978677	     -1.03953489	     27.48974251	     -4.11152173	      7.24393705	     -4.24418430	     -6.35483360	     -8.05876162	     11.63300912	      2.50497124	      9.90549477	      5.72562930	     -6.84063454	      5.73012069	     -4.99476041	     14.90436023	     -9.13363385	      0.07415589	      5.83376903
      3.63500000	     -8.50846028	      5.58090370	    359.71073993	     -0.06961595	      1.37863025	     -1.03947490	     27.47296607	     -4.45636635	      7.15429938	     -2.90263757	     -6.36253222	     -7.75164565	     11.49141348	      2.25997687	     10.10889021	      6.01333023	     -6.86359247	      5.98135120	     -5.08798613	     14.60861937	     -9.05989653	     -0.05419794	      5.63855608
      3.64000000	     -8.63454030	      5.73960692	    359.87818841	     -0.06432347	      1.37743399	     -1.03935908	     27.52341803	     -4.76516571	      7.06165469	     -1.70092787	     -6.36602453	     -7.57632208	     11.36550219	      2.06401402	     10.28734711	      6.26454287	     -6.90484101	      6.22328532	     -5.11130013	     14.55157449	     -8.92897166	     -0.20362788	      5.59155168
      3.64500000	     -8.68825801	      5.85428974	    360.04783601	     -0.05891822	      1.37632782	     -1.03927468	     27.51238756	     -5.02514435	      6.80163052	     -0.66682570	     -6.08982838	     -7.04693220	     10.87212277	      1.75324270	     10.42245726	      6.57368300	     -6.90619785	      6.54214022	     -5.18920384	     14.06584057	     -8.87601890	     -0.24948210	      5.37554776
      3.65000000	     -8.75197272	      5.95361283	    360.22114113	     -0.05347643	      1.37523537	     -1.03911130	     27.53443534	     -5.24865933	      6.52756356	      0.22834113	     -5.91568824	     -6.76384677	     10.59134959	      1.45635779	     10.52874537	      6.84798928	     -6.90910394	      6.78561692	     -5.23973638	     13.90927400	     -8.81158104	     -0.28912742	      5.15563523
      3.65500000	     -8.78611208	      6.00166434	    360.37835614	     -0.04795324	      1.37420103	     -1.03893014	     27.54370449	     -5.39915619	      6.20255972	      0.96853901	     -5.68757921	     -6.46635390	     10.25903345	      1.11704694	     10.57469358	      7.10705602	     -6.90346063	      7.05351066	     -5.27309232	     13.74854194	     -8.76206254	     -0.27832523	      5.03319447
      3.66000000	     -8.79983387	      6.04832125	    360.52430517	     -0.04241636	      1.37320440	     -1.03865434	     27.57780664	     -5.51872819	      5.83371378	      1.50739122	     -5.38012884	     -6.17421747	      9.81827886	      0.74893021	     10.60894709	      7.34330380	     -6.88590463	      7.32667912	     -5.26286319	     13.55950010	     -8.74168807	     -0.27916992	      4.89032400
      3.66500000	     -8.79974636	      6.04022904	    360.65198648	     -0.03678531	      1.37226326	     -1.03834650	     27.61016854	     -5.56052501	      5.45383145	      1.90843825	     -5.16052410	     -6.00148168	      9.46445969	      0.35184376	     10.57621730	      7.55442505	     -6.84650113	      7.59905077	     -5.23709235	     13.44643634	     -8.71961687	     -0.21415362	      4.78435375
